<?xml version="1.0" encoding="iso-8859-1"?>
<!-- Generator: Adobe Illustrator 19.0.0, SVG Export Plug-In . SVG Version: 6.00 Build 0)  -->
<svg version="1.1" id="Capa_1" xmlns="http://www.w3.org/2000/svg" xmlns:xlink="http://www.w3.org/1999/xlink" x="0px" y="0px"
	 viewBox="0 0 512 512" style="enable-background:new 0 0 512 512;" xml:space="preserve">
<polygon style="fill:#235C81;" points="211.002,351.905 181,381.905 181.002,437 211.002,467 "/>
<polygon style="fill:#092A40;" points="301.002,467 331.002,437 331,381.904 301.002,351.905 "/>
<path style="fill:#FF755C;" d="M331.002,437H256l-30,37.5l30,37.5h30.005c11.987,0,23.278-4.69,31.794-13.206
	c8.517-8.516,13.206-19.808,13.205-31.794L331.002,437z"/>
<path style="fill:#FF9356;" d="M181.002,437l0.001,30.001C181.005,491.813,201.191,512,226.004,512H256v-75H181.002z"/>
<path style="fill:#4EB9FF;" d="M196,187.726l60,194.179h75l69.932-95.275c2.152-2.918,4.209-5.887,6.169-8.903L196,187.726z"/>
<path style="fill:#7ACBFF;" d="M104.897,277.726c1.955,3.007,4.005,5.967,6.151,8.875L181,381.905h75V187.726L104.897,277.726z"/>
<path style="fill:#FFB14E;" d="M76,180c0,35.033,9.963,68.604,28.897,97.726h75.573L256,0C156.748,0,76,80.748,76,180z"/>
<path style="fill:#FF9356;" d="M166,180c0,35.031,4.997,68.585,14.47,97.726H256L301,167L256,0C256,0,166,80.748,166,180z"/>
<path style="fill:#FF4181;" d="M256,0l75.53,277.726h75.572C426.042,248.589,436,215.025,436,180C436,80.748,355.252,0,256,0z"/>
<path style="fill:#FF755C;" d="M331.53,277.726C341.003,248.585,346,215.031,346,180c0-99.252-40.374-180-90-180
	c0,0,0,139.255,0,277.726H331.53z"/>
<g>
</g>
<g>
</g>
<g>
</g>
<g>
</g>
<g>
</g>
<g>
</g>
<g>
</g>
<g>
</g>
<g>
</g>
<g>
</g>
<g>
</g>
<g>
</g>
<g>
</g>
<g>
</g>
<g>
</g>
</svg>
