<svg id="Flat" height="512" viewBox="0 0 512 512" width="512" xmlns="http://www.w3.org/2000/svg"><path d="m152 88a63.97 63.97 0 1 1 -11.47-36.58 64 64 0 0 1 11.47 36.58z" fill="#b3b1b3"/><path d="m80 56h16v16h-16z" fill="#808080"/><path d="m152 88a64.016 64.016 0 0 1 -100.58 52.53 224.952 224.952 0 0 1 89.11-89.11 63.741 63.741 0 0 1 11.47 36.58z" fill="#969595"/><path d="m456 248q0 8.07-.61 16a208.055 208.055 0 0 1 -399.12 64.8 206.777 206.777 0 0 1 -15.66-64.81c-.41-5.27-.61-10.61-.61-15.99a208 208 0 1 1 416 0z" fill="#f79726"/><path d="m450.34 296.38a205.289 205.289 0 0 1 -10.28 31.62 208.654 208.654 0 0 1 -81.16 95.99 206.572 206.572 0 0 1 -62.52 26.35 112.018 112.018 0 0 1 153.96-153.96z" fill="#e47b33"/><path d="m455.39 264a207.028 207.028 0 0 1 -15.33 64h-160.81c-26.04 0-51.81 6.66-74.04 20.22-12.19 7.44-27.79 11.78-45.21 11.78s-33.02-4.34-45.21-11.78a139.669 139.669 0 0 0 -58.52-19.42 206.777 206.777 0 0 1 -15.66-64.81c26.72-.35 52.71-8 75.94-21.25 11.92-6.8 26.86-10.74 43.45-10.74s31.53 3.94 43.45 10.74c23.78 13.57 50.46 21.26 77.85 21.26z" fill="#e8732d"/><path d="m450.34 296.38a205.289 205.289 0 0 1 -10.28 31.62h-139.98a112.038 112.038 0 0 1 150.26-31.62z" fill="#d46028"/><path d="m445.96 184h-36.66c-27.39 0-54.07 7.69-77.85 21.26-11.92 6.8-26.86 10.74-43.45 10.74s-31.53-3.94-43.45-10.74c-23.78-13.57-50.46-21.26-77.85-21.26h-116.66a207.244 207.244 0 0 1 34-64h75.89c30.23 0 59.76-8.04 86.43-22.26 11.6-6.19 25.88-9.74 41.64-9.74s30.04 3.55 41.64 9.74c25.45 13.57 53.5 21.51 82.28 22.21a207.064 207.064 0 0 1 34.04 64.05z" fill="#fbbe1f"/><path d="m358.9 423.99a208.082 208.082 0 0 1 -237.59-11.01 366.021 366.021 0 0 1 94.69-12.98c29.96 0 48.84 4.15 65.28 9 22.85 6.75 40.99 14.83 77.62 14.99z" fill="#fbbe1f"/><ellipse cx="160" cy="296" fill="#f79726" rx="40" ry="24"/><ellipse cx="288" cy="152" fill="#f7aa23" rx="40" ry="24"/><path d="m358.9 423.99a206.572 206.572 0 0 1 -62.52 26.35 111.333 111.333 0 0 1 -15.1-41.34c22.85 6.75 40.99 14.83 77.62 14.99z" fill="#f79726"/><path d="m488 392a96.021 96.021 0 0 1 -188.98 24 94.771 94.771 0 0 1 -2.68-16q-.345-3.96-.34-8t.34-8a94.771 94.771 0 0 1 2.68-16 96.041 96.041 0 0 1 170.96-32 95.906 95.906 0 0 1 15 32 96.353 96.353 0 0 1 3.02 24z" fill="#0093b9"/><path d="m412.54 456.006a20.428 20.428 0 0 1 -14.769-5.777c-4.9-4.9-6.8-12.263-5.217-20.2a41.018 41.018 0 0 1 30.275-30.276c7.934-1.585 15.294.315 20.2 5.217 9.517 9.517 7.032 26.911-5.656 39.6-7.502 7.5-16.645 11.436-24.833 11.436zm15.706-40.8a11.668 11.668 0 0 0 -2.279.241 25.166 25.166 0 0 0 -17.724 17.725c-.512 2.558-.2 4.706.841 5.744 2.308 2.307 10.065 1.25 16.971-5.656 6.906-6.9 7.963-14.663 5.656-16.971a4.883 4.883 0 0 0 -3.465-1.084z" fill="#5db9d2"/><path d="m384 368v16h-87.66a94.771 94.771 0 0 1 2.68-16z" fill="#5db9d2"/><path d="m360 448v16h-31.49a95.76 95.76 0 0 1 -14.49-16z" fill="#2da4c4"/><path d="m469.98 336h-69.98v-16h55.49a95.76 95.76 0 0 1 14.49 16z" fill="#067a98"/><path d="m484.98 368h-52.98v-16h47.29a95.277 95.277 0 0 1 5.69 16z" fill="#2da4c4"/><path d="m336 400v16h-36.98a94.771 94.771 0 0 1 -2.68-16z" fill="#067a98"/><g fill="#808080"><rect height="16" rx="8" width="16" x="184" y="480"/><rect height="16" rx="8" width="16" x="40" y="464"/><rect height="16" rx="8" width="16" x="24" y="352"/><rect height="16" rx="8" width="16" x="368" y="24"/><rect height="16" rx="8" width="16" x="480" y="184"/><rect height="16" rx="8" width="16" x="464" y="64"/><rect height="16" rx="8" width="16" x="480" y="480"/></g></svg>